<?xml version="1.0" standalone="no"?>
<!DOCTYPE svg PUBLIC "-//W3C//DTD SVG 20010904//EN"
 "http://www.w3.org/TR/2001/REC-SVG-20010904/DTD/svg10.dtd">
<svg version="1.0" xmlns="http://www.w3.org/2000/svg"
 width="600.000000pt" height="604.000000pt" viewBox="0 0 600.000000 604.000000"
 preserveAspectRatio="xMidYMid meet">
<g transform="translate(0.000000,604.000000) scale(0.100000,-0.100000)"
stroke="none">
<!-- top curve -->
<path fill="#cc252c"  d="M2952 5717 c-62 -111 -158 -283 -213 -382 -309 -550 -454 -866 -544
-1190 -16 -55 -30 -102 -31 -104 -1 -1 -45 13 -96 33 -398 153 -827 116 -1170
-100 -47 -30 -128 -103 -128 -115 0 -16 203 -11 227 6 48 34 187 96 269 122
84 25 101 27 289 27 161 1 216 -3 280 -18 150 -34 304 -104 405 -182 l45 -35
7 92 c19 241 73 395 275 789 349 679 491 942 505 938 5 -2 25 -33 45 -68 165
-302 241 -448 367 -698 303 -604 350 -730 358 -959 2 -51 5 -93 7 -93 3 0 36
22 75 49 215 148 491 219 747 191 164 -17 270 -49 409 -121 30 -15 77 -33 104
-39 54 -12 176 -11 176 1 0 29 -209 166 -340 222 -149 63 -249 81 -450 81
-196 -1 -303 -19 -493 -87 l-98 -36 -9 22 c-4 12 -20 63 -35 112 -33 114 -86
263 -137 385 -47 112 -229 479 -298 600 -175 308 -295 522 -355 632 -39 70
-72 128 -75 128 -3 0 -56 -91 -118 -203z"/>
<!-- middle curve -->
<path fill="#cc252c" d="M3068 5310 c-3 -8 -11 -91 -17 -185 -32 -468 -62 -903 -71 -1014 -16
-192 -27 -171 91 -171 l101 0 -6 63 c-3 34 -11 134 -16 222 -6 88 -15 221 -20
295 -30 404 -42 577 -49 685 -4 66 -10 113 -13 105z"/>
<!-- bird -->
<path fill="#143c82" d="M3031 3839 c-52 -10 -103 -43 -125 -80 -14 -24 -22 -27 -93 -32 -97
-7 -109 -11 -122 -49 -16 -46 -13 -72 10 -102 25 -32 38 -33 32 -3 -7 36 18
48 124 57 54 5 112 14 128 20 32 12 31 13 -22 46 -30 20 -4 32 82 39 103 8
144 -10 163 -70 15 -47 70 -423 63 -430 -2 -3 -82 -5 -178 -5 -129 0 -173 3
-173 12 0 7 16 68 36 136 20 69 33 133 30 146 -8 32 -49 48 -140 54 -92 6 -93
-1 -10 -54 30 -19 54 -37 54 -40 0 -5 -41 -105 -68 -164 -38 -86 -89 -102
-158 -51 -21 16 -111 102 -199 191 -175 177 -241 228 -342 266 -100 38 -208
43 -860 44 -651 0 -620 3 -567 -59 36 -44 52 -50 146 -61 131 -16 391 -51 416
-56 13 -2 20 -9 17 -14 -4 -6 -98 -10 -236 -10 -126 0 -229 -3 -229 -7 1 -10
30 -45 51 -61 11 -8 396 -72 436 -72 2 0 1 -4 -2 -10 -4 -6 -73 -10 -176 -10
-93 0 -169 -4 -169 -9 0 -15 71 -72 107 -88 19 -7 82 -20 141 -28 204 -27 262
-37 256 -46 -3 -5 -40 -9 -83 -9 -107 0 -231 -11 -231 -21 0 -4 37 -26 82 -48
83 -41 133 -51 386 -78 65 -7 68 -23 5 -24 -128 -4 -254 -15 -256 -23 -5 -21
152 -76 255 -91 193 -27 249 -38 241 -46 -4 -4 -65 -9 -135 -10 -71 -2 -128
-7 -128 -11 0 -17 84 -68 143 -87 34 -11 125 -30 202 -42 77 -11 141 -22 143
-24 3 -3 -44 -9 -157 -21 l-63 -6 28 -20 c85 -57 219 -100 354 -115 33 -3 63
-9 65 -13 2 -4 -30 -10 -72 -14 -71 -6 -93 -11 -82 -19 2 -2 69 -37 149 -77
160 -80 170 -86 170 -106 0 -8 -77 -92 -171 -188 -130 -134 -169 -179 -165
-194 15 -47 259 -264 276 -245 4 4 17 33 30 63 12 30 47 110 76 177 61 138 69
197 35 275 -47 111 -55 177 -57 486 -1 160 2 292 5 292 3 0 135 31 294 70
l287 69 286 -69 c157 -38 290 -73 296 -76 8 -5 9 -89 5 -288 -7 -289 -13 -339
-57 -466 -32 -94 -25 -181 22 -275 19 -38 52 -113 73 -165 21 -52 42 -99 46
-104 5 -5 49 30 101 81 51 50 112 107 136 128 23 21 41 41 40 46 -2 4 -57 65
-124 136 -230 245 -229 243 -208 263 11 10 78 48 149 85 72 37 139 72 150 78
19 10 18 12 -10 18 -16 4 -50 7 -75 8 -56 2 -37 15 35 25 127 18 252 61 334
115 l24 15 -24 7 c-13 4 -53 8 -89 9 -56 2 -134 16 -105 19 73 8 283 45 324
57 30 8 79 32 110 51 l56 36 -29 8 c-16 5 -76 9 -133 10 -103 1 -142 13 -81
24 18 3 99 14 180 25 145 19 221 41 260 77 28 25 22 33 -29 33 -93 0 -244 13
-236 20 4 4 64 15 133 24 69 9 154 21 190 27 66 10 130 41 163 76 17 20 16 20
-65 26 -46 4 -111 7 -145 7 -35 0 -63 4 -63 8 0 9 79 23 259 48 111 15 143 29
200 88 l35 36 -156 0 c-86 0 -159 4 -162 9 -6 9 107 32 249 51 44 6 96 15 115
20 37 10 99 64 87 76 -4 4 -106 7 -227 8 -137 1 -221 5 -223 11 -2 10 139 31
363 55 125 14 182 36 210 82 11 18 20 37 20 41 0 5 -300 7 -667 5 -736 -5
-715 -3 -853 -70 -54 -26 -100 -66 -270 -233 -113 -111 -220 -207 -237 -214
-28 -11 -36 -11 -57 2 -25 17 -56 92 -56 136 0 14 -12 88 -27 164 -27 134 -27
139 -11 200 9 34 15 63 13 65 -4 5 -117 20 -185 25 -36 3 -85 1 -109 -4z"/>
<!-- let curve -->
<path fill="#cc252c" d="M611 3663 c-22 -43 -71 -199 -86 -275 -20 -104 -20 -279 1 -388 74
-390 303 -691 691 -908 51 -29 97 -52 103 -52 7 0 9 22 5 63 -3 34 -7 93 -9
132 -9 183 92 344 273 431 44 21 79 44 78 49 -2 6 -28 25 -57 43 -96 57 -159
39 -261 -78 -76 -86 -126 -171 -157 -272 -15 -48 -31 -88 -35 -88 -19 0 -128
83 -195 149 -258 256 -368 631 -281 957 37 135 37 137 -11 199 -23 30 -44 55
-46 55 -2 0 -7 -8 -13 -17z"/>
<!-- right curve -->
<path fill="#cc252c" d="M5487 3628 c-55 -73 -57 -90 -27 -224 22 -101 27 -291 9 -390 -34
-196 -143 -399 -290 -545 -62 -61 -180 -149 -200 -149 -4 0 -13 19 -19 43 -42
161 -131 301 -245 382 -87 62 -90 62 -174 9 -40 -26 -69 -50 -64 -54 4 -4 28
-15 53 -24 133 -51 234 -159 279 -298 16 -49 20 -155 9 -252 -5 -43 -7 -81 -4
-83 3 -3 52 17 108 45 237 117 430 315 566 581 171 333 199 646 80 903 -42 91
-50 97 -81 56z"/>
<!-- right star -->
<path fill="#cc252c" d="M5062 3081 c-35 -108 -45 -116 -141 -116 -45 0 -81 -3 -81 -7 0 -3
28 -27 63 -53 34 -26 66 -53 70 -61 5 -8 -2 -45 -17 -90 -15 -42 -26 -80 -26
-86 0 -5 28 11 63 35 97 69 97 69 193 -4 28 -22 54 -39 57 -39 4 0 -5 31 -18
69 -25 70 -31 108 -17 127 4 6 28 24 53 41 81 56 81 60 -12 65 -95 4 -98 6
-140 119 l-25 69 -22 -69z"/>
<!-- left star -->
<path fill="#cc252c" d="M1047 3133 c-2 -5 -14 -38 -26 -74 -30 -91 -42 -100 -129 -97 -39 1
-74 -1 -78 -4 -3 -4 21 -26 55 -50 33 -24 63 -53 67 -65 3 -12 -5 -58 -19
-102 -14 -45 -22 -81 -19 -81 3 0 13 6 21 14 34 29 121 86 133 86 6 0 45 -23
85 -51 83 -57 82 -59 41 60 -10 30 -18 60 -18 66 0 7 32 36 70 64 39 29 70 55
70 59 0 4 -33 6 -74 4 -41 -2 -83 1 -94 7 -13 7 -30 40 -47 91 -27 80 -30 87
-38 73z"/>
<!-- top sheild -->
<path fill="#143c82" d="M2975 3040 c-22 -4 -80 -19 -130 -33 -49 -14 -133 -36 -185 -49 l-95
-23 -2 -144 c-2 -93 1 -149 8 -158 9 -10 110 -13 515 -13 l504 0 0 148 c0 81
-4 153 -8 160 -9 13 -318 93 -432 111 -72 12 -115 12 -175 1z m119 -55 c3 -8
13 -15 23 -15 13 0 14 -3 5 -12 -7 -7 -12 -19 -12 -28 0 -12 -10 -16 -36 -17
-25 -1 -34 3 -30 12 2 7 0 17 -6 23 -8 8 -4 17 13 31 29 25 35 25 43 6z m-124
-45 c7 0 10 -7 6 -16 -3 -9 -6 -23 -6 -33 0 -13 -9 -17 -35 -17 -26 0 -35 4
-35 17 0 10 -3 24 -6 33 -4 10 -1 16 9 16 8 0 18 8 22 18 6 16 7 16 19 0 7
-10 19 -18 26 -18z m280 0 c8 0 10 -8 6 -22 -3 -13 -6 -28 -6 -34 0 -7 -13
-11 -32 -9 -23 2 -32 7 -30 18 1 9 -2 18 -8 22 -15 9 -12 25 5 25 9 0 18 7 22
16 6 16 7 16 18 0 7 -9 18 -16 25 -16z m-423 -30 c10 0 13 -6 9 -16 -3 -9 -6
-23 -6 -33 0 -13 -9 -17 -35 -17 -29 0 -35 4 -35 22 0 12 -6 24 -12 27 -8 3
-6 8 7 13 11 4 24 14 29 22 7 13 10 13 18 -2 5 -9 16 -16 25 -16z m578 -4 c13
-5 15 -10 8 -13 -7 -3 -13 -15 -13 -27 0 -18 -6 -22 -35 -22 -19 0 -35 5 -35
11 0 5 -3 20 -6 33 -5 16 -2 22 9 22 8 0 18 8 22 18 6 15 8 15 18 1 7 -8 21
-19 32 -23z m-731 -21 c3 -8 13 -15 23 -15 13 0 14 -3 5 -12 -7 -7 -12 -20
-12 -29 0 -13 -9 -17 -34 -17 -24 0 -33 4 -30 13 3 7 1 16 -5 20 -16 9 -14 25
3 25 8 0 16 7 20 15 3 8 10 15 15 15 5 0 11 -7 15 -15z m876 -15 c11 0 11 -3
2 -12 -7 -7 -12 -20 -12 -29 0 -13 -9 -17 -36 -17 -25 0 -34 4 -30 13 2 7 0
17 -6 23 -8 8 -4 17 13 31 21 17 26 18 40 5 8 -8 22 -14 29 -14z m-840 -162
c0 -4 -4 -9 -10 -13 -5 -3 -7 -12 -4 -19 4 -10 -4 -14 -30 -14 -27 0 -36 4
-36 17 0 9 -5 22 -12 29 -9 9 -8 12 4 12 8 0 21 7 28 15 10 13 15 12 36 -3 13
-9 24 -20 24 -24z m134 27 c3 -8 13 -15 23 -15 13 0 14 -3 5 -12 -7 -7 -12
-19 -12 -28 0 -22 -56 -23 -64 -1 -3 9 -9 22 -12 29 -3 7 1 12 10 12 9 0 19 7
22 15 4 8 10 15 14 15 4 0 10 -7 14 -15z m191 -33 c-3 -8 -5 -20 -5 -27 0 -8
-13 -13 -34 -13 -29 0 -35 4 -39 26 -3 18 1 31 16 43 20 15 23 16 44 0 12 -9
20 -22 18 -29z m151 29 c16 -12 20 -25 17 -43 -4 -22 -10 -26 -39 -25 -24 1
-34 6 -34 17 0 9 -5 21 -12 28 -9 9 -8 12 5 12 10 0 20 7 23 15 8 19 14 19 40
-4z m158 4 c3 -8 13 -15 23 -15 13 0 14 -3 5 -12 -7 -7 -12 -19 -12 -28 0 -11
-10 -16 -35 -17 -20 -1 -32 3 -29 8 3 6 0 17 -8 26 -11 13 -11 17 0 21 7 2 18
10 25 18 16 17 24 17 31 -1z m196 -27 c0 -4 -4 -9 -10 -13 -5 -3 -7 -12 -4
-19 4 -10 -4 -14 -30 -13 -26 1 -36 5 -36 17 0 9 -5 21 -12 28 -9 9 -8 12 4
12 8 0 21 7 28 15 10 13 15 12 36 -3 13 -9 24 -20 24 -24z"/>
<!-- bottom sheild -->
<path fill="#cc252c" d="M2563 2518 c3 -13 16 -72 27 -133 12 -60 24 -112 26 -114 2 -2 4 57
4 132 l0 137 -31 0 c-27 0 -30 -3 -26 -22z"/>
<path fill="#cc252c" d="M2707 2534 c-4 -4 -7 -98 -7 -209 0 -223 8 -265 60 -326 l29 -34 -2
285 -2 285 -35 3 c-20 2 -39 0 -43 -4z"/>
<path fill="#cc252c" d="M2870 2215 c0 -352 2 -364 54 -399 l26 -16 0 370 0 370 -40 0 -40 0
0 -325z"/>
<path fill="#cc252c" d="M3038 2248 c-2 -161 -1 -345 2 -408 l5 -115 35 0 35 0 3 408 2 407
-40 0 -39 0 -3 -292z"/>
<path fill="#cc252c" d="M3210 2333 c0 -115 -2 -277 -3 -361 -1 -84 0 -158 4 -163 6 -11 68
54 70 74 1 7 3 157 4 335 l3 322 -39 0 -39 0 0 -207z"/>
<path fill="#cc252c" d="M3370 2253 l1 -288 29 35 c49 60 56 102 52 333 l-3 207 -40 0 -39 0
0 -287z"/>
<path fill="#cc252c" d="M3540 2403 c0 -75 2 -134 5 -132 4 4 45 242 45 262 0 4 -11 7 -25 7
l-25 0 0 -137z"/>
<!-- end of bottom sheild -->
<!-- bottom curve -->
<path fill="#cc252c" d="M4530 1988 c-33 -187 -102 -299 -220 -357 -72 -37 -102 -44 -179 -42
-69 2 -123 21 -202 72 -25 16 -50 29 -55 29 -5 0 -27 -15 -48 -33 -54 -46 -46
-71 37 -126 189 -123 371 -117 577 18 41 27 79 45 84 41 11 -11 -9 -151 -33
-230 -78 -251 -336 -461 -587 -478 -113 -7 -222 27 -340 109 -23 16 -45 29
-47 29 -2 0 -14 -28 -27 -62 -36 -103 -175 -377 -232 -460 -77 -112 -170 -218
-190 -218 -25 0 -159 168 -233 292 -62 102 -135 254 -186 383 -13 33 -25 62
-26 64 -2 2 -23 -10 -48 -28 -91 -65 -223 -111 -318 -111 -109 1 -279 68 -390
155 -141 111 -246 326 -247 503 0 34 2 62 5 62 2 0 28 -18 57 -40 70 -53 145
-88 231 -107 89 -20 186 -7 284 37 75 34 173 104 173 124 0 11 -52 58 -87 80
-7 4 -37 -9 -70 -30 -108 -69 -167 -86 -261 -73 -83 12 -162 52 -217 110 -55
58 -87 127 -116 247 -12 48 -25 91 -30 96 -12 13 -58 -96 -87 -209 -35 -137
-37 -327 -4 -460 99 -401 490 -691 852 -631 47 8 111 24 143 36 32 12 59 20
61 18 1 -1 30 -59 63 -128 100 -205 239 -397 402 -555 l51 -49 56 54 c83 82
209 234 272 330 46 69 171 302 185 343 2 6 26 1 62 -12 229 -86 488 -42 681
115 179 146 289 317 325 507 17 92 12 304 -9 402 -21 95 -79 255 -91 255 -4 0
-14 -33 -21 -72z"/>
<!-- left leg -->
<path fill="#143c82" d="M2616 1988 c-7 -18 -50 -118 -95 -222 -65 -151 -79 -191 -68 -197 8
-5 23 -16 35 -26 21 -17 21 -19 5 -51 -9 -18 -28 -42 -44 -53 -30 -21 -121
-45 -212 -54 -75 -8 -102 -32 -93 -83 3 -20 14 -44 25 -55 19 -19 19 -19 26
12 4 21 15 35 32 42 34 13 399 12 424 -1 10 -6 19 -16 19 -23 0 -7 5 -19 10
-27 14 -23 39 16 40 62 0 49 -32 70 -111 76 -33 3 -62 8 -65 13 -8 13 27 68
48 74 9 3 42 -1 72 -9 31 -8 58 -11 60 -8 5 9 114 265 126 297 9 24 1 35 -98
145 -59 65 -110 119 -114 119 -4 1 -14 -14 -22 -31z"/>
<!-- right leg -->
<path fill="#143c82" d="M3415 1909 c-55 -61 -103 -117 -108 -125 -4 -8 19 -76 60 -171 37
-87 68 -160 69 -162 2 -2 30 6 63 17 l61 21 30 -44 c16 -24 30 -46 30 -49 0
-3 -33 -6 -74 -6 -69 0 -76 -2 -95 -26 -27 -34 -26 -51 1 -94 22 -34 22 -35
26 -10 8 49 11 50 231 50 220 0 253 -6 259 -48 5 -31 17 -27 36 12 36 76 12
100 -107 111 -131 12 -188 38 -226 106 -20 34 -20 37 -3 51 9 8 25 19 34 24
15 8 10 25 -43 149 -33 77 -66 154 -73 170 -8 17 -24 54 -36 83 -12 28 -25 52
-29 52 -3 0 -51 -50 -106 -111z"/>
<!-- middle leg -->
<path fill="#143c82" d="M2917 1713 c-11 -17 -87 -206 -85 -209 9 -8 175 -24 257 -24 84 0
188 11 228 25 8 3 -2 37 -33 107 -25 57 -48 105 -50 107 -2 2 -35 -17 -74 -42
-38 -26 -75 -47 -82 -47 -7 0 -42 20 -77 45 -66 46 -76 51 -84 38z"/>
</g>
</svg>
